<svg width="233" height="296" viewBox="0 0 233 296" fill="none" xmlns="http://www.w3.org/2000/svg">
<path d="M45.8412 265.387H32.2479V279H29.7855V249.852H47.8431V251.954H32.2479V263.285H45.8412V265.387ZM65.8951 279C65.6549 278.319 65.5014 277.312 65.4347 275.977C64.5939 277.071 63.5195 277.919 62.2115 278.52C60.9169 279.107 59.5423 279.4 58.0875 279.4C56.0055 279.4 54.3172 278.82 53.0226 277.659C51.7413 276.498 51.1007 275.029 51.1007 273.254C51.1007 271.146 51.9749 269.477 53.7232 268.25C55.485 267.022 57.934 266.408 61.0704 266.408H65.4147V263.945C65.4147 262.397 64.9342 261.183 63.9732 260.302C63.0257 259.408 61.6376 258.96 59.8092 258.96C58.1409 258.96 56.7595 259.388 55.6651 260.242C54.5707 261.096 54.0235 262.124 54.0235 263.325L51.6212 263.305C51.6212 261.583 52.422 260.095 54.0235 258.84C55.6251 257.572 57.5937 256.938 59.9293 256.938C62.345 256.938 64.2468 257.546 65.6349 258.76C67.0362 259.961 67.7569 261.643 67.797 263.805V274.055C67.797 276.151 68.0172 277.719 68.4576 278.76V279H65.8951ZM58.3678 277.278C59.9693 277.278 61.3974 276.891 62.652 276.117C63.9199 275.343 64.8408 274.309 65.4147 273.014V268.25H61.1305C58.7415 268.276 56.873 268.717 55.525 269.571C54.177 270.412 53.503 271.573 53.503 273.054C53.503 274.269 53.9501 275.276 54.8443 276.077C55.7519 276.878 56.9264 277.278 58.3678 277.278ZM82.826 277.378C84.4943 277.378 85.889 276.911 87.0101 275.977C88.1446 275.029 88.7585 273.808 88.8519 272.313H91.1542C91.0874 273.635 90.6737 274.843 89.913 275.937C89.1522 277.018 88.1379 277.866 86.87 278.479C85.6154 279.093 84.2674 279.4 82.826 279.4C79.9833 279.4 77.7277 278.413 76.0594 276.438C74.4045 274.462 73.577 271.806 73.577 268.47V267.749C73.577 265.614 73.9507 263.725 74.6981 262.083C75.4455 260.442 76.5132 259.174 77.9012 258.28C79.3026 257.386 80.9375 256.938 82.806 256.938C85.1817 256.938 87.1369 257.646 88.6717 259.061C90.2199 260.475 91.0474 262.337 91.1542 264.646H88.8519C88.7451 262.951 88.1312 261.583 87.0101 260.542C85.9024 259.501 84.501 258.98 82.806 258.98C80.6439 258.98 78.9623 259.761 77.7611 261.323C76.5733 262.884 75.9794 265.073 75.9794 267.889V268.59C75.9794 271.353 76.5733 273.508 77.7611 275.056C78.9623 276.604 80.6506 277.378 82.826 277.378ZM104.962 279.4C103.12 279.4 101.452 278.947 99.9572 278.039C98.4757 277.132 97.3212 275.87 96.4938 274.255C95.6663 272.627 95.2526 270.805 95.2526 268.79V267.929C95.2526 265.847 95.653 263.972 96.4537 262.304C97.2679 260.635 98.3956 259.327 99.837 258.38C101.278 257.419 102.84 256.938 104.522 256.938C107.151 256.938 109.233 257.839 110.768 259.641C112.316 261.43 113.09 263.879 113.09 266.988V268.33H97.6349V268.79C97.6349 271.246 98.3356 273.294 99.7369 274.936C101.152 276.564 102.927 277.378 105.062 277.378C106.343 277.378 107.471 277.145 108.445 276.678C109.433 276.211 110.327 275.463 111.128 274.436L112.63 275.577C110.868 278.126 108.312 279.4 104.962 279.4ZM104.522 258.98C102.72 258.98 101.198 259.641 99.9572 260.962C98.7293 262.284 97.9819 264.059 97.715 266.288H110.708V266.027C110.641 263.945 110.047 262.25 108.926 260.942C107.805 259.634 106.337 258.98 104.522 258.98ZM135.807 268.39C135.807 271.766 135.059 274.449 133.564 276.438C132.07 278.413 130.061 279.4 127.538 279.4C124.522 279.4 122.24 278.279 120.692 276.037L120.592 279H118.349V248.25H120.732V260.482C122.253 258.12 124.509 256.938 127.498 256.938C130.061 256.938 132.083 257.919 133.564 259.881C135.059 261.83 135.807 264.546 135.807 268.029V268.39ZM133.404 267.969C133.404 265.113 132.85 262.911 131.743 261.363C130.635 259.801 129.073 259.021 127.058 259.021C125.523 259.021 124.222 259.401 123.154 260.162C122.086 260.909 121.279 262.01 120.732 263.465V273.234C121.933 275.957 124.055 277.318 127.098 277.318C129.073 277.318 130.615 276.538 131.723 274.976C132.844 273.415 133.404 271.079 133.404 267.969ZM140.405 267.849C140.405 265.767 140.806 263.892 141.607 262.224C142.421 260.555 143.562 259.261 145.03 258.34C146.511 257.406 148.186 256.938 150.055 256.938C152.938 256.938 155.273 257.953 157.062 259.981C158.85 261.997 159.744 264.673 159.744 268.009V268.51C159.744 270.605 159.337 272.494 158.523 274.175C157.722 275.844 156.588 277.132 155.12 278.039C153.652 278.947 151.977 279.4 150.095 279.4C147.225 279.4 144.89 278.393 143.088 276.377C141.3 274.349 140.405 271.666 140.405 268.33V267.849ZM142.808 268.51C142.808 271.099 143.475 273.228 144.81 274.896C146.158 276.551 147.919 277.378 150.095 277.378C152.257 277.378 154.005 276.551 155.34 274.896C156.688 273.228 157.362 271.032 157.362 268.31V267.849C157.362 266.194 157.055 264.679 156.441 263.305C155.827 261.93 154.966 260.869 153.859 260.122C152.751 259.361 151.483 258.98 150.055 258.98C147.919 258.98 146.178 259.821 144.83 261.503C143.482 263.171 142.808 265.36 142.808 268.069V268.51ZM164.003 267.849C164.003 265.767 164.403 263.892 165.204 262.224C166.018 260.555 167.159 259.261 168.627 258.34C170.109 257.406 171.784 256.938 173.652 256.938C176.535 256.938 178.871 257.953 180.659 259.981C182.447 261.997 183.342 264.673 183.342 268.009V268.51C183.342 270.605 182.935 272.494 182.121 274.175C181.32 275.844 180.185 277.132 178.717 278.039C177.249 278.947 175.574 279.4 173.692 279.4C170.823 279.4 168.487 278.393 166.685 276.377C164.897 274.349 164.003 271.666 164.003 268.33V267.849ZM166.405 268.51C166.405 271.099 167.072 273.228 168.407 274.896C169.755 276.551 171.517 277.378 173.692 277.378C175.854 277.378 177.603 276.551 178.937 274.896C180.285 273.228 180.959 271.032 180.959 268.31V267.849C180.959 266.194 180.652 264.679 180.038 263.305C179.425 261.93 178.564 260.869 177.456 260.122C176.348 259.361 175.08 258.98 173.652 258.98C171.517 258.98 169.775 259.821 168.427 261.503C167.079 263.171 166.405 265.36 166.405 268.069V268.51ZM194.067 268.089L191.324 270.732V279H188.922V248.25H191.324V267.929L193.586 265.487L201.874 257.339H204.897L195.708 266.468L205.698 279H202.835L194.067 268.089Z" fill="#BDBDBD"/>
<path fill-rule="evenodd" clip-rule="evenodd" d="M0 111C0 49.6964 52.1588 0 116.5 0C180.841 0 233 49.6964 233 111C233 172.304 180.841 222 116.5 222C52.1588 222 0 172.304 0 111ZM128.643 176.266V115.876H146.139L148.458 95.065H128.643L128.673 84.6491C128.673 79.2213 129.214 76.313 137.396 76.313H148.334V55.5H130.835C109.816 55.5 102.418 65.5954 102.418 82.5727V95.0674H89.3167V115.878H102.418V176.266H128.643Z" fill="white"/>
</svg>
