<svg width="232" height="296" viewBox="0 0 232 296" fill="none" xmlns="http://www.w3.org/2000/svg">
<path d="M52.6945 265.747L61.6032 249.852H64.446L53.9157 268.029V279H51.4533V268.029L40.9431 249.852H43.8659L52.6945 265.747ZM66.102 267.849C66.102 265.767 66.5024 263.892 67.3032 262.224C68.1173 260.555 69.2584 259.261 70.7265 258.34C72.208 257.406 73.883 256.938 75.7514 256.938C78.6343 256.938 80.9699 257.953 82.7583 259.981C84.5467 261.997 85.4409 264.673 85.4409 268.009V268.51C85.4409 270.605 85.0338 272.494 84.2197 274.175C83.4189 275.844 82.2845 277.132 80.8164 278.039C79.3483 278.947 77.6733 279.4 75.7915 279.4C72.922 279.4 70.5864 278.393 68.7846 276.377C66.9962 274.349 66.102 271.666 66.102 268.33V267.849ZM68.5044 268.51C68.5044 271.099 69.1717 273.228 70.5063 274.896C71.8543 276.551 73.616 277.378 75.7915 277.378C77.9536 277.378 79.702 276.551 81.0366 274.896C82.3846 273.228 83.0586 271.032 83.0586 268.31V267.849C83.0586 266.194 82.7516 264.679 82.1377 263.305C81.5237 261.93 80.6629 260.869 79.5552 260.122C78.4474 259.361 77.1795 258.98 75.7514 258.98C73.616 258.98 71.8743 259.821 70.5263 261.503C69.1784 263.171 68.5044 265.36 68.5044 268.069V268.51ZM104.954 276.257C103.513 278.353 101.211 279.4 98.0476 279.4C95.7387 279.4 93.9836 278.733 92.7825 277.398C91.5813 276.05 90.9674 274.062 90.9407 271.433V257.339H93.323V271.132C93.323 275.256 94.9913 277.318 98.3279 277.318C101.798 277.318 103.993 275.884 104.914 273.014V257.339H107.317V279H104.994L104.954 276.257ZM117.901 251.793V257.339H122.386V259.301H117.901V273.735C117.901 274.936 118.115 275.83 118.542 276.417C118.982 277.005 119.71 277.298 120.724 277.298C121.125 277.298 121.772 277.232 122.666 277.098L122.766 279.06C122.139 279.287 121.285 279.4 120.204 279.4C118.562 279.4 117.368 278.927 116.62 277.979C115.873 277.018 115.499 275.61 115.499 273.755V259.301H111.515V257.339H115.499V251.793H117.901ZM141.899 276.257C140.458 278.353 138.156 279.4 134.992 279.4C132.684 279.4 130.928 278.733 129.727 277.398C128.526 276.05 127.912 274.062 127.886 271.433V257.339H130.268V271.132C130.268 275.256 131.936 277.318 135.273 277.318C138.743 277.318 140.938 275.884 141.859 273.014V257.339H144.261V279H141.939L141.899 276.257ZM168.56 268.39C168.56 271.766 167.812 274.449 166.317 276.438C164.823 278.413 162.814 279.4 160.292 279.4C157.275 279.4 154.993 278.279 153.445 276.037L153.345 279H151.103V248.25H153.485V260.482C155.006 258.12 157.262 256.938 160.251 256.938C162.814 256.938 164.836 257.919 166.317 259.881C167.812 261.83 168.56 264.546 168.56 268.029V268.39ZM166.157 267.969C166.157 265.113 165.603 262.911 164.496 261.363C163.388 259.801 161.826 259.021 159.811 259.021C158.276 259.021 156.975 259.401 155.907 260.162C154.84 260.909 154.032 262.01 153.485 263.465V273.234C154.686 275.957 156.808 277.318 159.851 277.318C161.826 277.318 163.368 276.538 164.476 274.976C165.597 273.415 166.157 271.079 166.157 267.969ZM182.868 279.4C181.026 279.4 179.358 278.947 177.863 278.039C176.382 277.132 175.227 275.87 174.4 274.255C173.572 272.627 173.158 270.805 173.158 268.79V267.929C173.158 265.847 173.559 263.972 174.36 262.304C175.174 260.635 176.302 259.327 177.743 258.38C179.184 257.419 180.746 256.938 182.428 256.938C185.057 256.938 187.139 257.839 188.674 259.641C190.222 261.43 190.996 263.879 190.996 266.988V268.33H175.541V268.79C175.541 271.246 176.241 273.294 177.643 274.936C179.058 276.564 180.833 277.378 182.968 277.378C184.249 277.378 185.377 277.145 186.351 276.678C187.339 276.211 188.233 275.463 189.034 274.436L190.535 275.577C188.774 278.126 186.218 279.4 182.868 279.4ZM182.428 258.98C180.626 258.98 179.104 259.641 177.863 260.962C176.635 262.284 175.888 264.059 175.621 266.288H188.614V266.027C188.547 263.945 187.953 262.25 186.832 260.942C185.711 259.634 184.243 258.98 182.428 258.98Z" fill="#BDBDBD"/>
<path fill-rule="evenodd" clip-rule="evenodd" d="M0 111C0 49.6964 51.935 0 116 0C180.065 0 232 49.6964 232 111C232 172.304 180.065 222 116 222C51.935 222 0 172.304 0 111ZM175.281 83.5886C173.858 78.3577 169.665 74.2386 164.341 72.8406C154.693 70.3 116 70.3 116 70.3C116 70.3 77.3073 70.3 67.6582 72.8406C62.3342 74.2386 58.1413 78.3577 56.7184 83.5886C54.1333 93.0691 54.1333 112.85 54.1333 112.85C54.1333 112.85 54.1333 132.63 56.7184 142.111C58.1413 147.342 62.3342 151.461 67.6582 152.86C77.3073 155.4 116 155.4 116 155.4C116 155.4 154.693 155.4 164.341 152.86C169.665 151.461 173.858 147.342 175.281 142.111C177.867 132.63 177.867 112.85 177.867 112.85C177.867 112.85 177.867 93.0691 175.281 83.5886Z" fill="white"/>
<path fill-rule="evenodd" clip-rule="evenodd" d="M107 132V90L139 111.001L107 132Z" fill="white"/>
</svg>
