<svg width="233" height="296" viewBox="0 0 233 296" fill="none" xmlns="http://www.w3.org/2000/svg">
<path d="M67.1802 267.128V279H64.7178V249.852H74.6474C77.6771 249.852 80.0661 250.626 81.8144 252.174C83.5762 253.722 84.457 255.851 84.457 258.56C84.457 261.296 83.6095 263.411 81.9145 264.906C80.2329 266.388 77.7905 267.128 74.5874 267.128H67.1802ZM67.1802 265.046H74.6474C77.0364 265.046 78.8582 264.479 80.1128 263.345C81.3673 262.21 81.9946 260.629 81.9946 258.6C81.9946 256.585 81.3673 254.983 80.1128 253.795C78.8716 252.594 77.1032 251.98 74.8076 251.954H67.1802V265.046ZM92.4192 261.002C93.2066 259.708 94.2143 258.707 95.4421 258C96.67 257.292 98.0113 256.938 99.4661 256.938C101.788 256.938 103.517 257.592 104.651 258.9C105.786 260.208 106.359 262.17 106.373 264.786V279H103.99V264.766C103.977 262.831 103.563 261.389 102.749 260.442C101.948 259.494 100.661 259.021 98.8855 259.021C97.404 259.021 96.0894 259.488 94.9416 260.422C93.8072 261.343 92.9664 262.591 92.4192 264.166V279H90.0369V248.25H92.4192V261.002ZM111.833 267.849C111.833 265.767 112.233 263.892 113.034 262.224C113.848 260.555 114.989 259.261 116.457 258.34C117.938 257.406 119.613 256.938 121.482 256.938C124.365 256.938 126.7 257.953 128.489 259.981C130.277 261.997 131.171 264.673 131.171 268.009V268.51C131.171 270.605 130.764 272.494 129.95 274.175C129.149 275.844 128.015 277.132 126.547 278.039C125.079 278.947 123.404 279.4 121.522 279.4C118.653 279.4 116.317 278.393 114.515 276.377C112.727 274.349 111.833 271.666 111.833 268.33V267.849ZM114.235 268.51C114.235 271.099 114.902 273.228 116.237 274.896C117.585 276.551 119.347 277.378 121.522 277.378C123.684 277.378 125.432 276.551 126.767 274.896C128.115 273.228 128.789 271.032 128.789 268.31V267.849C128.789 266.194 128.482 264.679 127.868 263.305C127.254 261.93 126.393 260.869 125.286 260.122C124.178 259.361 122.91 258.98 121.482 258.98C119.347 258.98 117.605 259.821 116.257 261.503C114.909 263.171 114.235 265.36 114.235 268.069V268.51ZM139.033 257.339L139.114 261.042C139.928 259.708 140.942 258.694 142.157 258C143.371 257.292 144.712 256.938 146.18 256.938C148.503 256.938 150.231 257.592 151.365 258.9C152.5 260.208 153.074 262.17 153.087 264.786V279H150.705V264.766C150.692 262.831 150.278 261.389 149.464 260.442C148.663 259.494 147.375 259.021 145.6 259.021C144.118 259.021 142.804 259.488 141.656 260.422C140.522 261.343 139.681 262.591 139.134 264.166V279H136.751V257.339H139.033ZM168.296 279.4C166.455 279.4 164.786 278.947 163.292 278.039C161.81 277.132 160.656 275.87 159.828 274.255C159.001 272.627 158.587 270.805 158.587 268.79V267.929C158.587 265.847 158.987 263.972 159.788 262.304C160.602 260.635 161.73 259.327 163.171 258.38C164.613 257.419 166.174 256.938 167.856 256.938C170.485 256.938 172.567 257.839 174.102 259.641C175.65 261.43 176.424 263.879 176.424 266.988V268.33H160.969V268.79C160.969 271.246 161.67 273.294 163.071 274.936C164.486 276.564 166.261 277.378 168.396 277.378C169.678 277.378 170.806 277.145 171.78 276.678C172.767 276.211 173.662 275.463 174.462 274.436L175.964 275.577C174.202 278.126 171.646 279.4 168.296 279.4ZM167.856 258.98C166.054 258.98 164.533 259.641 163.292 260.962C162.064 262.284 161.316 264.059 161.049 266.288H174.042V266.027C173.975 263.945 173.381 262.25 172.26 260.942C171.139 259.634 169.671 258.98 167.856 258.98Z" fill="#BDBDBD"/>
<ellipse cx="116.5" cy="111" rx="116.5" ry="111" fill="#FFEFEF"/>
<path d="M92.9915 105.572C98.0159 115.844 106.342 124.132 116.637 129.11C117.39 129.467 118.223 129.622 119.055 129.559C119.886 129.496 120.686 129.218 121.377 128.751L136.535 118.643C137.206 118.196 137.977 117.924 138.78 117.85C139.582 117.776 140.39 117.904 141.131 118.221L169.489 130.375C170.452 130.784 171.257 131.495 171.781 132.401C172.305 133.307 172.52 134.359 172.394 135.398C171.498 142.412 168.076 148.859 162.769 153.531C157.462 158.203 150.633 160.781 143.562 160.781C121.724 160.781 100.779 152.106 85.3367 136.663C69.8942 121.221 61.2188 100.277 61.2188 78.4376C61.2191 71.3668 63.7968 64.5385 68.4691 59.2314C73.1415 53.9242 79.588 50.5021 86.6018 49.6058C87.6409 49.48 88.6927 49.6954 89.5987 50.2194C90.5048 50.7434 91.216 51.5476 91.6252 52.511L103.789 80.894C104.104 81.6282 104.232 82.4288 104.163 83.2244C104.093 84.0201 103.828 84.7863 103.39 85.4546L93.3174 100.845C92.8589 101.538 92.5879 102.337 92.5308 103.166C92.4737 103.994 92.6324 104.823 92.9915 105.572V105.572Z" stroke="#2C0C75" stroke-linecap="round" stroke-linejoin="round"/>
</svg>
