<svg width="233" height="296" viewBox="0 0 233 296" fill="none" xmlns="http://www.w3.org/2000/svg">
<path d="M28.977 279H26.5146V249.852H28.977V279ZM39.2414 257.339L39.3215 261.042C40.1356 259.708 41.15 258.694 42.3645 258C43.579 257.292 44.9203 256.938 46.3884 256.938C48.7107 256.938 50.439 257.592 51.5735 258.9C52.7079 260.208 53.2818 262.17 53.2951 264.786V279H50.9128V264.766C50.8995 262.831 50.4857 261.389 49.6716 260.442C48.8708 259.494 47.5829 259.021 45.8078 259.021C44.3264 259.021 43.0118 259.488 41.864 260.422C40.7295 261.343 39.8887 262.591 39.3415 264.166V279H36.9592V257.339H39.2414ZM73.0888 273.495C73.0888 272.307 72.6084 271.353 71.6474 270.632C70.6999 269.911 69.2651 269.351 67.3432 268.95C65.4214 268.536 63.9266 268.069 62.8589 267.549C61.8045 267.015 61.0171 266.368 60.4966 265.607C59.9894 264.846 59.7358 263.925 59.7358 262.844C59.7358 261.136 60.4499 259.728 61.8779 258.62C63.306 257.499 65.1344 256.938 67.3633 256.938C69.779 256.938 71.7142 257.539 73.1689 258.74C74.637 259.928 75.3711 261.483 75.3711 263.405H72.9687C72.9687 262.137 72.4349 261.083 71.3672 260.242C70.3128 259.401 68.9782 258.98 67.3633 258.98C65.7884 258.98 64.5205 259.334 63.5596 260.042C62.612 260.736 62.1382 261.643 62.1382 262.764C62.1382 263.845 62.5319 264.686 63.3193 265.287C64.1201 265.874 65.5682 266.414 67.6636 266.908C69.7723 267.402 71.3471 267.929 72.3882 268.49C73.4425 269.05 74.2233 269.724 74.7304 270.512C75.2376 271.299 75.4912 272.253 75.4912 273.375C75.4912 275.203 74.7505 276.664 73.269 277.759C71.8009 278.853 69.879 279.4 67.5034 279.4C64.9809 279.4 62.9323 278.793 61.3574 277.579C59.7959 276.351 59.0151 274.803 59.0151 272.934H61.4175C61.5109 274.335 62.0981 275.43 63.1792 276.217C64.2736 276.991 65.715 277.378 67.5034 277.378C69.1717 277.378 70.5197 277.011 71.5473 276.277C72.575 275.543 73.0888 274.616 73.0888 273.495ZM85.2351 251.793V257.339H89.7195V259.301H85.2351V273.735C85.2351 274.936 85.4486 275.83 85.8757 276.417C86.3162 277.005 87.0435 277.298 88.0579 277.298C88.4582 277.298 89.1055 277.232 89.9997 277.098L90.0998 279.06C89.4726 279.287 88.6184 279.4 87.5373 279.4C85.8957 279.4 84.7012 278.927 83.9538 277.979C83.2065 277.018 82.8328 275.61 82.8328 273.755V259.301H78.8489V257.339H82.8328V251.793H85.2351ZM108.973 279C108.732 278.319 108.579 277.312 108.512 275.977C107.671 277.071 106.597 277.919 105.289 278.52C103.994 279.107 102.62 279.4 101.165 279.4C99.083 279.4 97.3947 278.82 96.1001 277.659C94.8188 276.498 94.1782 275.029 94.1782 273.254C94.1782 271.146 95.0524 269.477 96.8008 268.25C98.5625 267.022 101.012 266.408 104.148 266.408H108.492V263.945C108.492 262.397 108.012 261.183 107.051 260.302C106.103 259.408 104.715 258.96 102.887 258.96C101.218 258.96 99.8371 259.388 98.7427 260.242C97.6483 261.096 97.1011 262.124 97.1011 263.325L94.6987 263.305C94.6987 261.583 95.4995 260.095 97.1011 258.84C98.7026 257.572 100.671 256.938 103.007 256.938C105.423 256.938 107.324 257.546 108.712 258.76C110.114 259.961 110.834 261.643 110.875 263.805V274.055C110.875 276.151 111.095 277.719 111.535 278.76V279H108.973ZM101.445 277.278C103.047 277.278 104.475 276.891 105.729 276.117C106.997 275.343 107.918 274.309 108.492 273.014V268.25H104.208C101.819 268.276 99.9505 268.717 98.6025 269.571C97.2546 270.412 96.5806 271.573 96.5806 273.054C96.5806 274.269 97.0277 275.276 97.9219 276.077C98.8294 276.878 100.004 277.278 101.445 277.278ZM116.935 267.969C116.935 264.579 117.682 261.897 119.177 259.921C120.685 257.933 122.727 256.938 125.303 256.938C128.253 256.938 130.495 258.113 132.03 260.462L132.15 257.339H134.392V278.56C134.392 281.349 133.611 283.558 132.05 285.186C130.488 286.814 128.373 287.628 125.703 287.628C124.195 287.628 122.754 287.288 121.379 286.607C120.018 285.94 118.943 285.046 118.156 283.925L119.497 282.483C121.192 284.565 123.208 285.606 125.543 285.606C127.545 285.606 129.107 285.013 130.228 283.825C131.349 282.65 131.929 281.015 131.969 278.92V276.197C130.435 278.333 128.199 279.4 125.263 279.4C122.754 279.4 120.739 278.399 119.217 276.397C117.696 274.396 116.935 271.693 116.935 268.29V267.969ZM119.357 268.39C119.357 271.152 119.911 273.334 121.019 274.936C122.127 276.524 123.688 277.318 125.703 277.318C128.653 277.318 130.742 275.997 131.969 273.354V263.285C131.409 261.897 130.601 260.842 129.547 260.122C128.493 259.388 127.225 259.021 125.743 259.021C123.728 259.021 122.16 259.815 121.039 261.403C119.918 262.978 119.357 265.307 119.357 268.39ZM151.263 259.381C150.756 259.287 150.215 259.241 149.641 259.241C148.146 259.241 146.878 259.661 145.837 260.502C144.81 261.329 144.076 262.537 143.635 264.125V279H141.253V257.339H143.595L143.635 260.782C144.903 258.22 146.938 256.938 149.741 256.938C150.409 256.938 150.936 257.025 151.323 257.199L151.263 259.381ZM168.554 279C168.314 278.319 168.16 277.312 168.094 275.977C167.253 277.071 166.178 277.919 164.87 278.52C163.576 279.107 162.201 279.4 160.746 279.4C158.664 279.4 156.976 278.82 155.681 277.659C154.4 276.498 153.76 275.029 153.76 273.254C153.76 271.146 154.634 269.477 156.382 268.25C158.144 267.022 160.593 266.408 163.729 266.408H168.074V263.945C168.074 262.397 167.593 261.183 166.632 260.302C165.685 259.408 164.296 258.96 162.468 258.96C160.8 258.96 159.418 259.388 158.324 260.242C157.23 261.096 156.682 262.124 156.682 263.325L154.28 263.305C154.28 261.583 155.081 260.095 156.682 258.84C158.284 257.572 160.253 256.938 162.588 256.938C165.004 256.938 166.906 257.546 168.294 258.76C169.695 259.961 170.416 261.643 170.456 263.805V274.055C170.456 276.151 170.676 277.719 171.116 278.76V279H168.554ZM161.027 277.278C162.628 277.278 164.056 276.891 165.311 276.117C166.579 275.343 167.5 274.309 168.074 273.014V268.25H163.789C161.4 268.276 159.532 268.717 158.184 269.571C156.836 270.412 156.162 271.573 156.162 273.054C156.162 274.269 156.609 275.276 157.503 276.077C158.411 276.878 159.585 277.278 161.027 277.278ZM179.659 257.339L179.739 260.862C180.54 259.554 181.541 258.573 182.742 257.919C183.943 257.265 185.278 256.938 186.746 256.938C190.163 256.938 192.332 258.34 193.252 261.143C194.027 259.795 195.061 258.76 196.355 258.04C197.65 257.306 199.078 256.938 200.64 256.938C205.284 256.938 207.653 259.474 207.747 264.546V279H205.344V264.726C205.331 262.791 204.911 261.356 204.083 260.422C203.269 259.488 201.934 259.021 200.079 259.021C198.357 259.047 196.903 259.608 195.715 260.702C194.527 261.783 193.866 263.104 193.733 264.666V279H191.331V264.546C191.317 262.691 190.877 261.309 190.009 260.402C189.155 259.481 187.834 259.021 186.045 259.021C184.537 259.021 183.243 259.454 182.162 260.322C181.081 261.176 180.28 262.451 179.759 264.146V279H177.357V257.339H179.659Z" fill="#BDBDBD"/>
<path fill-rule="evenodd" clip-rule="evenodd" d="M0 111C0 49.6964 52.1588 0 116.5 0C180.841 0 233 49.6964 233 111C233 172.304 180.841 222 116.5 222C52.1588 222 0 172.304 0 111ZM116.506 51.8C99.6313 51.8 97.5135 51.8703 90.8859 52.1577C84.2712 52.4463 79.7562 53.444 75.8055 54.908C71.7189 56.4201 68.2523 58.4428 64.7987 61.7346C61.3425 65.0252 59.2196 68.3281 57.6274 72.2205C56.087 75.9859 55.0385 80.2891 54.7408 86.589C54.4443 92.9037 54.3667 94.9227 54.3667 111.001C54.3667 127.079 54.4417 129.09 54.7421 135.405C55.0463 141.707 56.0935 146.009 57.6287 149.773C59.217 153.667 61.3399 156.97 64.7948 160.26C68.2471 163.553 71.7137 165.581 75.7977 167.093C79.751 168.557 84.2673 169.555 90.8807 169.844C97.5084 170.131 99.6248 170.201 116.498 170.201C133.374 170.201 135.485 170.131 142.113 169.844C148.727 169.555 153.248 168.557 157.201 167.093C161.286 165.581 164.748 163.553 168.2 160.26C171.656 156.97 173.779 153.667 175.371 149.775C176.899 146.009 177.947 141.706 178.258 135.406C178.556 129.091 178.633 127.079 178.633 111.001C178.633 94.9227 178.556 92.905 178.258 86.5902C177.947 80.2878 176.899 75.9859 175.371 72.2217C173.779 68.3281 171.656 65.0252 168.2 61.7346C164.744 58.4416 161.288 56.4189 157.197 54.908C153.236 53.444 148.718 52.4463 142.104 52.1577C135.476 51.8703 133.366 51.8 116.486 51.8H116.506Z" fill="white"/>
<path fill-rule="evenodd" clip-rule="evenodd" d="M110.932 62.4684C112.586 62.466 114.432 62.4684 116.506 62.4684C133.096 62.4684 135.062 62.5252 141.613 62.8088C147.671 63.0728 150.959 64.0373 153.149 64.8476C156.049 65.9206 158.116 67.2033 160.29 69.2753C162.464 71.3473 163.811 73.3207 164.939 76.0834C165.79 78.1677 166.803 81.3004 167.079 87.0725C167.377 93.3132 167.441 95.1879 167.441 110.987C167.441 126.786 167.377 128.661 167.079 134.902C166.802 140.674 165.79 143.806 164.939 145.891C163.813 148.653 162.464 150.621 160.29 152.691C158.115 154.763 156.05 156.046 153.149 157.119C150.962 157.933 147.671 158.895 141.613 159.159C135.063 159.443 133.096 159.504 116.506 159.504C99.9148 159.504 97.9485 159.443 91.3985 159.159C85.3405 158.893 82.0525 157.928 79.861 157.118C76.9614 156.045 74.8903 154.762 72.7156 152.69C70.5409 150.618 69.1947 148.65 68.0659 145.886C67.2155 143.801 66.2019 140.669 65.9262 134.897C65.6284 128.656 65.5689 126.781 65.5689 110.972C65.5689 95.1632 65.6284 93.2984 65.9262 87.0577C66.2032 81.2856 67.2155 78.1529 68.0659 76.0661C69.1921 73.3034 70.5409 71.33 72.7156 69.258C74.8903 67.186 76.9614 65.9033 79.861 64.8278C82.0512 64.0138 85.3405 63.0518 91.3985 62.7866C97.1304 62.54 99.3517 62.466 110.932 62.4536V62.4684ZM149.672 72.2982C145.556 72.2982 142.216 75.4765 142.216 79.3998C142.216 83.3219 145.556 86.5039 149.672 86.5039C153.789 86.5039 157.128 83.3219 157.128 79.3998C157.128 75.4778 153.789 72.2982 149.672 72.2982ZM116.506 80.5986C98.8844 80.5986 84.5974 94.2111 84.5974 111.001C84.5974 127.79 98.8844 141.396 116.506 141.396C134.127 141.396 148.409 127.79 148.409 111.001C148.409 94.2111 134.127 80.5986 116.506 80.5986Z" fill="white"/>
<path fill-rule="evenodd" clip-rule="evenodd" d="M116.506 91.2671C127.944 91.2671 137.217 100.102 137.217 111.001C137.217 121.898 127.944 130.734 116.506 130.734C105.067 130.734 95.7945 121.898 95.7945 111.001C95.7945 100.102 105.067 91.2671 116.506 91.2671Z" fill="white"/>
</svg>
