<svg width="233" height="296" viewBox="0 0 233 296" fill="none" xmlns="http://www.w3.org/2000/svg">
<path d="M53.7284 251.954H43.7386V279H41.2762V251.954H31.3065V249.852H53.7284V251.954ZM64.8937 279.4C63.0519 279.4 61.3836 278.947 59.8888 278.039C58.4073 277.132 57.2529 275.87 56.4254 274.255C55.5979 272.627 55.1842 270.805 55.1842 268.79V267.929C55.1842 265.847 55.5846 263.972 56.3854 262.304C57.1995 260.635 58.3272 259.327 59.7687 258.38C61.2101 257.419 62.7716 256.938 64.4532 256.938C67.0825 256.938 69.1645 257.839 70.6993 259.641C72.2475 261.43 73.0216 263.879 73.0216 266.988V268.33H57.5665V268.79C57.5665 271.246 58.2672 273.294 59.6686 274.936C61.0833 276.564 62.8583 277.378 64.9938 277.378C66.275 277.378 67.4028 277.145 68.3771 276.678C69.3647 276.211 70.2589 275.463 71.0597 274.436L72.5611 275.577C70.7994 278.126 68.2436 279.4 64.8937 279.4ZM64.4532 258.98C62.6515 258.98 61.13 259.641 59.8888 260.962C58.6609 262.284 57.9135 264.059 57.6466 266.288H70.6393V266.027C70.5725 263.945 69.9786 262.25 68.8575 260.942C67.7364 259.634 66.2683 258.98 64.4532 258.98ZM80.9838 279H78.5814V248.25H80.9838V279ZM96.5133 279.4C94.6715 279.4 93.0032 278.947 91.5084 278.039C90.027 277.132 88.8725 275.87 88.045 274.255C87.2176 272.627 86.8038 270.805 86.8038 268.79V267.929C86.8038 265.847 87.2042 263.972 88.005 262.304C88.8191 260.635 89.9469 259.327 91.3883 258.38C92.8297 257.419 94.3912 256.938 96.0729 256.938C98.7021 256.938 100.784 257.839 102.319 259.641C103.867 261.43 104.641 263.879 104.641 266.988V268.33H89.1862V268.79C89.1862 271.246 89.8868 273.294 91.2882 274.936C92.7029 276.564 94.478 277.378 96.6134 277.378C97.8947 277.378 99.0224 277.145 99.9967 276.678C100.984 276.211 101.879 275.463 102.679 274.436L104.181 275.577C102.419 278.126 99.8632 279.4 96.5133 279.4ZM96.0729 258.98C94.2711 258.98 92.7496 259.641 91.5084 260.962C90.2806 262.284 89.5332 264.059 89.2662 266.288H102.259V266.027C102.192 263.945 101.598 262.25 100.477 260.942C99.3561 259.634 97.888 258.98 96.0729 258.98ZM108.96 267.969C108.96 264.579 109.707 261.897 111.202 259.921C112.71 257.933 114.752 256.938 117.328 256.938C120.278 256.938 122.52 258.113 124.055 260.462L124.175 257.339H126.417V278.56C126.417 281.349 125.636 283.558 124.075 285.186C122.513 286.814 120.398 287.628 117.728 287.628C116.22 287.628 114.779 287.288 113.404 286.607C112.043 285.94 110.968 285.046 110.181 283.925L111.522 282.483C113.217 284.565 115.233 285.606 117.568 285.606C119.57 285.606 121.132 285.013 122.253 283.825C123.374 282.65 123.954 281.015 123.995 278.92V276.197C122.46 278.333 120.224 279.4 117.288 279.4C114.779 279.4 112.764 278.399 111.242 276.397C109.721 274.396 108.96 271.693 108.96 268.29V267.969ZM111.382 268.39C111.382 271.152 111.936 273.334 113.044 274.936C114.152 276.524 115.713 277.318 117.728 277.318C120.678 277.318 122.767 275.997 123.995 273.354V263.285C123.434 261.897 122.627 260.842 121.572 260.122C120.518 259.388 119.25 259.021 117.768 259.021C115.753 259.021 114.185 259.815 113.064 261.403C111.943 262.978 111.382 265.307 111.382 268.39ZM143.288 259.381C142.781 259.287 142.24 259.241 141.666 259.241C140.171 259.241 138.903 259.661 137.862 260.502C136.835 261.329 136.101 262.537 135.66 264.125V279H133.278V257.339H135.62L135.66 260.782C136.928 258.22 138.964 256.938 141.766 256.938C142.434 256.938 142.961 257.025 143.348 257.199L143.288 259.381ZM160.579 279C160.339 278.319 160.185 277.312 160.119 275.977C159.278 277.071 158.203 277.919 156.895 278.52C155.601 279.107 154.226 279.4 152.771 279.4C150.689 279.4 149.001 278.82 147.706 277.659C146.425 276.498 145.785 275.029 145.785 273.254C145.785 271.146 146.659 269.477 148.407 268.25C150.169 267.022 152.618 266.408 155.754 266.408H160.099V263.945C160.099 262.397 159.618 261.183 158.657 260.302C157.71 259.408 156.322 258.96 154.493 258.96C152.825 258.96 151.443 259.388 150.349 260.242C149.255 261.096 148.707 262.124 148.707 263.325L146.305 263.305C146.305 261.583 147.106 260.095 148.707 258.84C150.309 257.572 152.278 256.938 154.613 256.938C157.029 256.938 158.931 257.546 160.319 258.76C161.72 259.961 162.441 261.643 162.481 263.805V274.055C162.481 276.151 162.701 277.719 163.142 278.76V279H160.579ZM153.052 277.278C154.653 277.278 156.081 276.891 157.336 276.117C158.604 275.343 159.525 274.309 160.099 273.014V268.25H155.814C153.425 268.276 151.557 268.717 150.209 269.571C148.861 270.412 148.187 271.573 148.187 273.054C148.187 274.269 148.634 275.276 149.528 276.077C150.436 276.878 151.61 277.278 153.052 277.278ZM171.684 257.339L171.764 260.862C172.565 259.554 173.566 258.573 174.767 257.919C175.968 257.265 177.303 256.938 178.771 256.938C182.188 256.938 184.357 258.34 185.277 261.143C186.052 259.795 187.086 258.76 188.381 258.04C189.675 257.306 191.103 256.938 192.665 256.938C197.309 256.938 199.678 259.474 199.772 264.546V279H197.369V264.726C197.356 262.791 196.936 261.356 196.108 260.422C195.294 259.488 193.959 259.021 192.104 259.021C190.382 259.047 188.928 259.608 187.74 260.702C186.552 261.783 185.891 263.104 185.758 264.666V279H183.356V264.546C183.342 262.691 182.902 261.309 182.034 260.402C181.18 259.481 179.859 259.021 178.07 259.021C176.562 259.021 175.268 259.454 174.187 260.322C173.106 261.176 172.305 262.451 171.784 264.146V279H169.382V257.339H171.684Z" fill="#BDBDBD"/>
<path fill-rule="evenodd" clip-rule="evenodd" d="M233 111C233 172.303 180.841 222 116.5 222C52.159 222 0 172.303 0 111C0 49.6966 52.159 0 116.5 0C180.841 0 233 49.6966 233 111ZM78.0137 100.832C66.3434 105.687 54.3526 110.675 43.3878 116.43C37.6624 120.424 45.2718 123.249 52.4109 125.899C53.5458 126.321 54.6686 126.737 55.7244 127.154C56.603 127.411 57.4961 127.682 58.4015 127.957C66.3414 130.367 75.1944 133.055 82.9029 129.012C95.5654 122.082 107.515 114.069 119.456 106.063C123.368 103.44 127.279 100.817 131.213 98.2336C131.398 98.1212 131.606 97.9926 131.833 97.8525C135.185 95.7819 142.724 91.1259 139.935 97.5417C133.342 104.413 126.278 110.494 119.177 116.61C114.391 120.731 109.587 124.868 104.898 129.271C100.814 132.433 96.5732 138.791 101.146 143.218C111.679 150.244 122.377 157.099 133.068 163.95C136.547 166.179 140.026 168.409 143.498 170.644C149.382 175.12 158.578 171.499 159.872 164.504C160.447 161.287 161.025 158.07 161.602 154.852C164.795 137.07 167.988 119.282 170.808 101.442C171.192 98.6439 171.626 95.8457 172.061 93.0462C173.115 86.2609 174.17 79.4672 174.5 72.6453C173.651 65.8373 164.987 67.3344 160.166 68.8653C135.384 77.8499 110.85 87.5004 86.4134 97.3211C83.6451 98.4894 80.8389 99.6567 78.0137 100.832Z" fill="white"/>
</svg>
