<svg width="233" height="296" viewBox="0 0 233 296" fill="none" xmlns="http://www.w3.org/2000/svg">
<path d="M51.5334 271.132L52.4343 275.657L53.5354 271.333L59.8615 249.852H62.0837L68.3298 271.333L69.4109 275.697L70.3718 271.132L75.6369 249.852H78.1594L70.6921 279H68.3298L61.7234 256.198L60.9826 253.315L60.2619 256.198L53.4953 279H51.133L43.6858 249.852H46.2082L51.5334 271.132ZM90.706 279.4C88.8642 279.4 87.1959 278.947 85.7012 278.039C84.2197 277.132 83.0652 275.87 82.2378 274.255C81.4103 272.627 80.9966 270.805 80.9966 268.79V267.929C80.9966 265.847 81.397 263.972 82.1977 262.304C83.0119 260.635 84.1396 259.327 85.581 258.38C87.0224 257.419 88.584 256.938 90.2656 256.938C92.8948 256.938 94.9769 257.839 96.5117 259.641C98.0599 261.43 98.834 263.879 98.834 266.988V268.33H83.3789V268.79C83.3789 271.246 84.0796 273.294 85.4809 274.936C86.8957 276.564 88.6707 277.378 90.8061 277.378C92.0874 277.378 93.2152 277.145 94.1894 276.678C95.1771 276.211 96.0713 275.463 96.8721 274.436L98.3735 275.577C96.6118 278.126 94.056 279.4 90.706 279.4ZM90.2656 258.98C88.4638 258.98 86.9424 259.641 85.7012 260.962C84.4733 262.284 83.7259 264.059 83.459 266.288H96.4516V266.027C96.3849 263.945 95.791 262.25 94.6699 260.942C93.5488 259.634 92.0807 258.98 90.2656 258.98ZM121.551 268.39C121.551 271.766 120.803 274.449 119.308 276.438C117.814 278.413 115.805 279.4 113.282 279.4C110.266 279.4 107.984 278.279 106.436 276.037L106.336 279H104.093V248.25H106.476V260.482C107.997 258.12 110.253 256.938 113.242 256.938C115.805 256.938 117.827 257.919 119.308 259.881C120.803 261.83 121.551 264.546 121.551 268.029V268.39ZM119.148 267.969C119.148 265.113 118.594 262.911 117.487 261.363C116.379 259.801 114.817 259.021 112.802 259.021C111.267 259.021 109.966 259.401 108.898 260.162C107.83 260.909 107.023 262.01 106.476 263.465V273.234C107.677 275.957 109.799 277.318 112.842 277.318C114.817 277.318 116.359 276.538 117.467 274.976C118.588 273.415 119.148 271.079 119.148 267.969ZM140.443 273.495C140.443 272.307 139.963 271.353 139.002 270.632C138.054 269.911 136.62 269.351 134.698 268.95C132.776 268.536 131.281 268.069 130.213 267.549C129.159 267.015 128.372 266.368 127.851 265.607C127.344 264.846 127.09 263.925 127.09 262.844C127.09 261.136 127.804 259.728 129.232 258.62C130.66 257.499 132.489 256.938 134.718 256.938C137.133 256.938 139.069 257.539 140.523 258.74C141.992 259.928 142.726 261.483 142.726 263.405H140.323C140.323 262.137 139.789 261.083 138.722 260.242C137.667 259.401 136.333 258.98 134.718 258.98C133.143 258.98 131.875 259.334 130.914 260.042C129.966 260.736 129.493 261.643 129.493 262.764C129.493 263.845 129.886 264.686 130.674 265.287C131.475 265.874 132.923 266.414 135.018 266.908C137.127 267.402 138.702 267.929 139.743 268.49C140.797 269.05 141.578 269.724 142.085 270.512C142.592 271.299 142.846 272.253 142.846 273.375C142.846 275.203 142.105 276.664 140.624 277.759C139.155 278.853 137.234 279.4 134.858 279.4C132.335 279.4 130.287 278.793 128.712 277.579C127.15 276.351 126.37 274.803 126.37 272.934H128.772C128.865 274.335 129.453 275.43 130.534 276.217C131.628 276.991 133.069 277.378 134.858 277.378C136.526 277.378 137.874 277.011 138.902 276.277C139.93 275.543 140.443 274.616 140.443 273.495ZM151.549 279H149.146V257.339H151.549V279ZM148.726 251.073C148.726 250.619 148.873 250.239 149.166 249.932C149.46 249.611 149.86 249.451 150.367 249.451C150.875 249.451 151.275 249.611 151.569 249.932C151.876 250.239 152.029 250.619 152.029 251.073C152.029 251.527 151.876 251.907 151.569 252.214C151.275 252.521 150.875 252.674 150.367 252.674C149.86 252.674 149.46 252.521 149.166 252.214C148.873 251.907 148.726 251.527 148.726 251.073ZM162.414 251.793V257.339H166.898V259.301H162.414V273.735C162.414 274.936 162.627 275.83 163.054 276.417C163.495 277.005 164.222 277.298 165.236 277.298C165.637 277.298 166.284 277.232 167.178 277.098L167.278 279.06C166.651 279.287 165.797 279.4 164.716 279.4C163.074 279.4 161.88 278.927 161.132 277.979C160.385 277.018 160.011 275.61 160.011 273.755V259.301H156.027V257.339H160.011V251.793H162.414ZM180.866 279.4C179.024 279.4 177.356 278.947 175.861 278.039C174.38 277.132 173.225 275.87 172.398 274.255C171.57 272.627 171.157 270.805 171.157 268.79V267.929C171.157 265.847 171.557 263.972 172.358 262.304C173.172 260.635 174.3 259.327 175.741 258.38C177.182 257.419 178.744 256.938 180.426 256.938C183.055 256.938 185.137 257.839 186.672 259.641C188.22 261.43 188.994 263.879 188.994 266.988V268.33H173.539V268.79C173.539 271.246 174.24 273.294 175.641 274.936C177.056 276.564 178.831 277.378 180.966 277.378C182.247 277.378 183.375 277.145 184.349 276.678C185.337 276.211 186.231 275.463 187.032 274.436L188.533 275.577C186.772 278.126 184.216 279.4 180.866 279.4ZM180.426 258.98C178.624 258.98 177.102 259.641 175.861 260.962C174.633 262.284 173.886 264.059 173.619 266.288H186.612V266.027C186.545 263.945 185.951 262.25 184.83 260.942C183.709 259.634 182.241 258.98 180.426 258.98Z" fill="#BDBDBD"/>
<path fill-rule="evenodd" clip-rule="evenodd" d="M224.132 153.478C229.987 140.011 233 125.577 233 111C233 96.4234 229.987 81.9891 224.132 68.522C218.277 55.0549 209.696 42.8185 198.878 32.5112C188.06 22.2039 175.217 14.0277 161.083 8.44939C146.948 2.87112 131.799 0 116.5 0C85.6021 0 55.9701 11.6946 34.122 32.5112C12.274 53.3277 0 81.5612 0 111C0 140.439 12.274 168.672 34.122 189.489C55.9701 210.305 85.6021 222 116.5 222C131.799 222 146.948 219.129 161.083 213.551C175.217 207.973 188.06 199.796 198.878 189.489C209.696 179.182 218.277 166.945 224.132 153.478ZM192.421 183.34C212.557 164.154 223.869 138.133 223.869 111.001C223.869 83.8687 212.557 57.8479 192.421 38.6623C172.285 19.477 144.975 8.69874 116.498 8.69874C88.0213 8.69874 60.7111 19.477 40.5749 38.6623C20.4389 57.8479 9.12664 83.8687 9.12664 111.001C9.12664 138.133 20.4389 164.154 40.5749 183.34C60.7111 202.525 88.0213 213.303 116.498 213.303C144.975 213.303 172.285 202.525 192.421 183.34Z" fill="white"/>
<path fill-rule="evenodd" clip-rule="evenodd" d="M116.502 14.0335C115.635 14.0335 114.937 14.6986 114.937 15.525V32.7292C114.937 33.5555 115.635 34.2207 116.502 34.2207C117.37 34.2207 118.068 33.5555 118.068 32.7292V15.525C118.068 14.6986 117.37 14.0335 116.502 14.0335ZM106.262 14.6502C106.157 14.6395 106.051 14.6395 105.943 14.6514C105.08 14.7372 104.459 15.4678 104.549 16.2896L105.338 23.4871C105.427 24.309 106.194 24.9016 107.057 24.8158C107.92 24.7301 108.542 23.9994 108.452 23.1775L107.663 15.9801C107.584 15.261 106.987 14.7173 106.262 14.6502ZM126.815 14.6573C126.089 14.7239 125.492 15.2674 125.412 15.9865L124.618 23.1834C124.527 24.0052 125.149 24.7365 126.012 24.8229C126.874 24.9094 127.641 24.3173 127.732 23.4956L128.527 16.2981C128.617 15.4763 127.995 14.7455 127.133 14.6591C127.025 14.6485 126.919 14.6485 126.815 14.6573ZM95.7413 16.1037C95.6373 16.1045 95.5311 16.1143 95.425 16.1356C94.5766 16.3067 94.0383 17.0955 94.2177 17.9039L97.9575 34.7347C98.137 35.5431 98.9649 36.0562 99.8133 35.8851C100.662 35.7139 101.2 34.9258 101.021 34.1174L97.2808 17.2859C97.124 16.5786 96.4708 16.0983 95.7413 16.1037ZM137.335 16.1179C136.605 16.1108 135.952 16.5925 135.794 17.2997L132.041 34.1286C131.861 34.9369 132.399 35.7258 133.248 35.8976C134.096 36.0694 134.924 35.5567 135.104 34.7485L138.857 17.9195C139.037 17.1113 138.499 16.3223 137.651 16.1506C137.545 16.1294 137.439 16.1179 137.335 16.1179ZM85.7015 18.8009C85.499 18.7831 85.2893 18.8044 85.0832 18.8696C84.2584 19.1251 83.8098 19.9627 84.0779 20.7486L86.4254 27.6313C86.6935 28.4173 87.5732 28.8446 88.3981 28.5892C89.2229 28.3337 89.6705 27.4954 89.4024 26.7095L87.0554 19.8269C86.8545 19.2374 86.3095 18.8501 85.7015 18.8009ZM147.317 18.8044C146.709 18.8537 146.165 19.2411 145.964 19.8305L143.615 26.7126C143.347 27.4984 143.795 28.3368 144.62 28.5922C145.444 28.8477 146.324 28.4207 146.593 27.6351L148.941 20.7523C149.209 19.9665 148.761 19.1281 147.936 18.8727C147.73 18.8089 147.52 18.7882 147.317 18.8044ZM75.7734 22.2625C75.5699 22.266 75.3638 22.3086 75.1659 22.3925C74.3739 22.7281 74.0191 23.606 74.3713 24.3611L81.7054 40.0821C82.0576 40.8371 82.9788 41.1748 83.7714 40.8391C84.5634 40.5035 84.9187 39.6257 84.5665 38.8706L77.2319 23.1495C76.9679 22.5832 76.3835 22.2512 75.7734 22.2625ZM157.358 22.3153C156.748 22.3046 156.163 22.6345 155.898 23.2004L148.542 38.9118C148.188 39.6664 148.542 40.5449 149.334 40.8816C150.126 41.2182 151.048 40.8818 151.401 40.1272L158.757 24.4158C159.111 23.6612 158.757 22.7826 157.965 22.446C157.767 22.362 157.561 22.3195 157.358 22.3153ZM66.558 26.9083C66.2575 26.887 65.9474 26.9508 65.6659 27.106C64.9149 27.5191 64.6596 28.4278 65.0928 29.1434L68.8905 35.4107C69.3242 36.1264 70.2778 36.3697 71.0293 35.9566C71.7804 35.5434 72.0357 34.6348 71.602 33.9192L67.8042 27.6519C67.533 27.2046 67.0588 26.9417 66.558 26.9083ZM166.447 26.9083C165.946 26.9402 165.472 27.2045 165.201 27.6518L161.403 33.919C160.969 34.6347 161.225 35.5433 161.976 35.9564C162.727 36.3696 163.681 36.1262 164.115 35.4106L167.912 29.1433C168.346 28.4277 168.091 27.519 167.34 27.1059C167.058 26.951 166.748 26.8885 166.447 26.9083ZM57.6091 32.2261C57.3081 32.2367 57.0062 32.3288 56.7432 32.5106C56.0414 32.9958 55.886 33.9249 56.3951 34.5937L66.9978 48.5194C67.5069 49.1881 68.483 49.3361 69.1848 48.8511C69.8866 48.366 70.042 47.437 69.5324 46.7678L58.9291 32.8423C58.6108 32.4242 58.1109 32.2097 57.6091 32.2261ZM175.508 32.3019C175.006 32.2842 174.506 32.4986 174.187 32.916L163.564 46.8284C163.054 47.4966 163.208 48.4256 163.91 48.9121C164.611 49.3981 165.586 49.2516 166.096 48.5839L176.718 34.6716C177.229 34.0034 177.075 33.074 176.373 32.5879C176.11 32.4058 175.809 32.3122 175.508 32.3019ZM49.6106 38.6175C49.2107 38.5962 48.8032 38.7234 48.4807 38.9998C47.8363 39.5527 47.7845 40.492 48.3649 41.1061L53.4468 46.485C54.0271 47.0995 55.013 47.1488 55.6574 46.5954C56.3023 46.043 56.3541 45.1027 55.7738 44.4887L50.6923 39.1104C50.4022 38.8032 50.01 38.6375 49.6106 38.6175ZM183.406 38.6281C183.006 38.6494 182.614 38.8141 182.324 39.1211L177.242 44.499C176.662 45.1129 176.713 46.0527 177.357 46.6057C178.002 47.1586 178.988 47.1092 179.569 46.4953L184.651 41.1175C185.231 40.5034 185.18 39.5635 184.535 39.0107C184.213 38.7342 183.805 38.6082 183.406 38.6281ZM41.9443 45.6336C41.5447 45.6551 41.1534 45.8197 40.8632 46.127C40.283 46.741 40.3349 47.6802 40.9793 48.2332L54.3993 59.7435C55.0437 60.2965 56.0296 60.2471 56.6099 59.6332C57.1902 59.0187 57.139 58.0794 56.494 57.5265L43.0735 46.0161C42.7511 45.7401 42.3439 45.6136 41.9443 45.6336ZM191.109 45.6839C190.71 45.6629 190.301 45.7894 189.979 46.0659L176.551 57.567C175.906 58.1194 175.853 59.0587 176.433 59.6737C177.012 60.2882 177.999 60.338 178.644 59.7856L192.073 48.284C192.718 47.7315 192.77 46.7922 192.19 46.1778C191.9 45.8705 191.509 45.7045 191.109 45.6839ZM35.5691 53.444C35.0672 53.4264 34.5669 53.6418 34.2483 54.0594C33.7385 54.7281 33.8931 55.6572 34.5949 56.1427L40.7396 60.3966C41.4413 60.8821 42.4161 60.7356 42.9259 60.0669C43.4357 59.3982 43.2815 58.4687 42.5801 57.9832L36.4352 53.7292C36.1723 53.547 35.8701 53.4542 35.5691 53.444ZM197.478 53.4982C197.177 53.5089 196.875 53.6008 196.612 53.783L190.465 58.033C189.763 58.518 189.607 59.4475 190.116 60.1167C190.626 60.7854 191.601 60.9324 192.303 60.4474L198.451 56.1979C199.153 55.7124 199.308 54.7833 198.798 54.1146C198.48 53.6965 197.98 53.4816 197.478 53.4982ZM29.6115 61.7755C29.1106 61.8073 28.6367 62.0715 28.3656 62.5189C27.932 63.2345 28.1875 64.143 28.9386 64.5563L44.5758 73.1584C45.3269 73.5716 46.2804 73.3279 46.7141 72.6123C47.1478 71.8967 46.8925 70.9882 46.1415 70.575L30.5039 61.9728C30.2224 61.818 29.9121 61.756 29.6115 61.7755ZM203.393 61.7755C203.093 61.754 202.783 61.818 202.501 61.9733L186.864 70.5755C186.113 70.9882 185.857 71.8972 186.29 72.6128C186.724 73.3284 187.678 73.5716 188.429 73.1584L204.067 64.5563C204.818 64.1435 205.074 63.2345 204.64 62.5189C204.369 62.072 203.894 61.8087 203.393 61.7755ZM25.1071 70.6556C24.497 70.6414 23.912 70.974 23.6471 71.5402C23.2937 72.2948 23.6468 73.173 24.4389 73.5096L31.3762 76.4579C32.1683 76.7949 33.0903 76.4584 33.4436 75.7037C33.7969 74.9491 33.4431 74.0703 32.6511 73.7338L25.7145 70.7855C25.5167 70.7015 25.3104 70.6595 25.1071 70.6556ZM207.928 70.7171C207.725 70.7205 207.518 70.763 207.32 70.847L200.381 73.79C199.589 74.1265 199.234 75.0043 199.588 75.7594C199.94 76.5141 200.863 76.8516 201.655 76.5155L208.594 73.5716C209.386 73.2361 209.739 72.3573 209.387 71.6027C209.122 71.0366 208.538 70.7054 207.928 70.7171ZM21.0926 79.9371C20.4846 79.9855 19.9395 80.3723 19.738 80.9619C19.4695 81.7473 19.9164 82.586 20.7412 82.842L37.9095 88.1719C38.734 88.4279 39.6143 88.0015 39.8829 87.216C40.1515 86.4306 39.7044 85.5919 38.8796 85.336L21.7115 80.006C21.5055 79.9415 21.2952 79.921 21.0926 79.9371ZM211.935 80.0006C211.733 79.983 211.523 80.0045 211.317 80.0695L194.145 85.3878C193.32 85.6432 192.872 86.4819 193.14 87.2678C193.408 88.0532 194.288 88.4802 195.113 88.2247L212.285 82.9064C213.109 82.651 213.558 81.8128 213.29 81.0269C213.089 80.4373 212.543 80.05 211.935 80.0006ZM18.5915 89.6798C17.8622 89.673 17.2081 90.1551 17.0503 90.8623C16.8699 91.6707 17.4081 92.4596 18.2563 92.6315L25.6861 94.1355C26.5344 94.3074 27.3624 93.795 27.5427 92.9866C27.7231 92.1782 27.185 91.3894 26.3368 91.2174L18.9077 89.7135C18.8017 89.692 18.6956 89.6798 18.5915 89.6798ZM214.417 89.694C214.313 89.6949 214.208 89.7081 214.101 89.7257L206.672 91.2297C205.823 91.4016 205.285 92.1895 205.466 92.9979C205.646 93.8062 206.474 94.3191 207.322 94.1477L214.751 92.6437C215.599 92.4723 216.138 91.6834 215.958 90.875C215.8 90.1678 215.146 89.6881 214.417 89.694ZM16.6983 99.4801C15.9724 99.5461 15.3748 100.089 15.2951 100.808C15.204 101.63 15.8244 102.361 16.6869 102.448L34.6435 104.257C35.5059 104.344 36.2739 103.752 36.365 102.93C36.4561 102.108 35.835 101.377 34.9725 101.29L17.0159 99.4811C16.9081 99.4703 16.8021 99.4703 16.6983 99.4801ZM216.323 99.6086C216.22 99.5978 216.113 99.5978 216.005 99.6095L198.046 101.395C197.184 101.481 196.562 102.212 196.652 103.034C196.742 103.856 197.508 104.448 198.371 104.362L216.33 102.577C217.192 102.491 217.814 101.76 217.724 100.939C217.645 100.219 217.049 99.6755 216.323 99.6086ZM16.3943 109.511C15.527 109.511 14.8289 110.177 14.8289 111.003C14.8289 111.83 15.527 112.494 16.3943 112.494H23.9897C24.8569 112.494 25.5557 111.83 25.5557 111.003C25.5557 110.177 24.8569 109.511 23.9897 109.511H16.3943ZM209.015 109.511C208.148 109.511 207.45 110.177 207.45 111.003C207.45 111.83 208.148 112.494 209.015 112.494H216.61C217.478 112.494 218.176 111.83 218.176 111.003C218.176 110.177 217.478 109.511 216.61 109.511H209.015ZM34.9516 117.643C34.8479 117.632 34.7418 117.632 34.634 117.644L16.6746 119.429C15.812 119.515 15.1903 120.246 15.2802 121.068C15.3702 121.89 16.137 122.482 16.9996 122.396L34.959 120.611C35.8216 120.525 36.4433 119.794 36.3534 118.972C36.2746 118.253 35.6775 117.71 34.9516 117.643ZM198.044 117.748C197.318 117.814 196.72 118.357 196.64 119.076C196.549 119.898 197.17 120.63 198.032 120.717L215.989 122.525C216.851 122.612 217.619 122.02 217.711 121.199C217.801 120.377 217.181 119.645 216.318 119.558L198.362 117.749C198.254 117.739 198.147 117.739 198.044 117.748ZM25.9996 127.824C25.8955 127.825 25.7895 127.835 25.6835 127.856L18.2537 129.36C17.4053 129.532 16.8675 130.32 17.0477 131.129C17.2281 131.937 18.056 132.45 18.9043 132.278L26.3342 130.775C27.1825 130.603 27.7203 129.814 27.5401 129.006C27.3824 128.299 26.7289 127.819 25.9996 127.824ZM207.003 127.839C206.274 127.831 205.621 128.313 205.463 129.02C205.282 129.829 205.82 130.617 206.668 130.789L214.098 132.294C214.946 132.466 215.774 131.953 215.954 131.145C216.135 130.337 215.596 129.547 214.748 129.376L207.319 127.871C207.213 127.85 207.107 127.839 207.003 127.839ZM38.5108 133.713C38.3081 133.695 38.0988 133.717 37.8926 133.782L20.7203 139.1C19.8955 139.356 19.4476 140.194 19.7156 140.98C19.9838 141.766 20.8636 142.193 21.6884 141.937L38.8601 136.619C39.6849 136.363 40.1335 135.525 39.8654 134.739C39.6641 134.149 39.1188 133.763 38.5108 133.713ZM194.477 133.766C193.869 133.814 193.324 134.201 193.123 134.791C192.854 135.576 193.301 136.415 194.126 136.671L211.294 142.001C212.119 142.257 212.999 141.831 213.267 141.045C213.537 140.259 213.089 139.421 212.264 139.165L195.096 133.835C194.89 133.77 194.68 133.75 194.477 133.766ZM31.9579 145.362C31.7545 145.366 31.5486 145.407 31.3505 145.491L24.4112 148.435C23.6189 148.771 23.2653 149.65 23.618 150.404C23.9709 151.159 24.8925 151.496 25.6848 151.16L32.6241 148.217C33.4163 147.881 33.77 147.003 33.4173 146.247C33.1529 145.681 32.568 145.35 31.9579 145.362ZM201.022 145.419C200.412 145.404 199.827 145.737 199.562 146.303C199.208 147.058 199.562 147.937 200.354 148.273L207.29 151.221C208.082 151.558 209.005 151.221 209.358 150.467C209.711 149.712 209.358 148.834 208.566 148.497L201.629 145.548C201.431 145.464 201.225 145.422 201.022 145.419ZM45.4683 148.651C45.1678 148.63 44.8575 148.693 44.5758 148.848L28.9386 157.451C28.1875 157.864 27.932 158.772 28.3656 159.488C28.7993 160.203 29.7529 160.447 30.5039 160.034L46.1415 151.432C46.8925 151.019 47.1478 150.11 46.7141 149.395C46.4429 148.947 45.9692 148.684 45.4683 148.651ZM187.537 148.651C187.036 148.683 186.562 148.947 186.29 149.395C185.857 150.11 186.113 151.019 186.864 151.432L202.501 160.034C203.252 160.447 204.206 160.203 204.64 159.488C205.074 158.772 204.818 157.864 204.067 157.451L188.429 148.848C188.147 148.694 187.838 148.631 187.537 148.651ZM41.5679 161.274C41.2666 161.285 40.9651 161.377 40.7018 161.559L34.5543 165.809C33.8523 166.294 33.697 167.224 34.2062 167.892C34.7155 168.561 35.6906 168.709 36.3926 168.224L42.5407 163.974C43.2427 163.489 43.398 162.56 42.8888 161.891C42.5704 161.473 42.0698 161.258 41.5679 161.274ZM191.4 161.324C190.898 161.307 190.397 161.522 190.079 161.94C189.569 162.609 189.724 163.538 190.426 164.024L196.57 168.278C197.272 168.763 198.247 168.616 198.757 167.947C199.266 167.279 199.112 166.35 198.411 165.864L192.266 161.61C192.003 161.428 191.701 161.335 191.4 161.324ZM55.4913 161.839C55.0914 161.818 54.6838 161.945 54.3614 162.221L40.9329 173.723C40.2879 174.275 40.2355 175.215 40.8153 175.829C41.3951 176.444 42.381 176.493 43.026 175.941L56.4546 164.439C57.0995 163.887 57.1518 162.948 56.572 162.333C56.2823 162.026 55.8906 161.86 55.4913 161.839ZM177.476 161.881C177.077 161.902 176.685 162.066 176.395 162.374C175.814 162.988 175.867 163.927 176.511 164.48L189.931 175.99C190.575 176.543 191.562 176.494 192.142 175.88C192.722 175.266 192.67 174.327 192.026 173.774L178.605 162.263C178.283 161.987 177.876 161.861 177.476 161.881ZM68.2307 172.807C67.7289 172.789 67.228 173.003 66.9091 173.421L56.2869 187.334C55.7768 188.002 55.9301 188.931 56.6314 189.417C57.3327 189.903 58.3083 189.757 58.8184 189.089L69.4406 175.176C69.9507 174.508 69.7974 173.579 69.0961 173.093C68.8331 172.911 68.5317 172.817 68.2307 172.807ZM164.687 172.87C164.386 172.88 164.084 172.972 163.821 173.154C163.119 173.639 162.964 174.568 163.473 175.237L174.075 189.163C174.585 189.832 175.56 189.98 176.261 189.495C176.964 189.009 177.119 188.08 176.61 187.412L166.007 173.486C165.689 173.068 165.189 172.853 164.687 172.87ZM54.5183 175.018C54.1184 175.04 53.7267 175.204 53.4366 175.512L48.3546 180.889C47.7743 181.503 47.8256 182.443 48.47 182.996C49.1149 183.549 50.1007 183.499 50.6805 182.885L55.7635 177.507C56.3438 176.893 56.292 175.954 55.6476 175.401C55.3252 175.124 54.9181 174.998 54.5183 175.018ZM178.477 175.026C178.078 175.004 177.67 175.132 177.348 175.408C176.703 175.96 176.652 176.9 177.232 177.514L182.313 182.893C182.893 183.507 183.879 183.556 184.524 183.003C185.168 182.451 185.22 181.511 184.64 180.897L179.558 175.518C179.268 175.211 178.877 175.046 178.477 175.026ZM83.0639 180.992C82.4538 180.977 81.8694 181.31 81.6044 181.876L74.2478 197.587C73.8946 198.342 74.2478 199.221 75.0398 199.557C75.8319 199.894 76.7536 199.557 77.1068 198.803L84.464 183.091C84.8172 182.337 84.464 181.458 83.6719 181.121C83.474 181.037 83.2674 180.995 83.0639 180.992ZM149.842 181.035C149.638 181.038 149.432 181.08 149.234 181.164C148.442 181.5 148.087 182.377 148.439 183.132L155.773 198.854C156.125 199.608 157.047 199.946 157.84 199.611C158.632 199.275 158.986 198.397 158.634 197.642L151.3 181.921C151.036 181.355 150.452 181.023 149.842 181.035ZM70.1368 185.849C69.6359 185.881 69.1617 186.145 68.8905 186.593L65.0928 192.86C64.6596 193.576 64.9149 194.484 65.6659 194.897C66.417 195.31 67.3705 195.067 67.8042 194.351L71.602 188.084C72.0357 187.368 71.7804 186.46 71.0293 186.047C70.7474 185.892 70.4372 185.829 70.1368 185.849ZM162.868 185.849C162.568 185.828 162.258 185.892 161.976 186.047C161.225 186.46 160.97 187.369 161.404 188.084L165.201 194.352C165.635 195.067 166.589 195.31 167.34 194.897C168.091 194.484 168.346 193.576 167.912 192.86L164.115 186.593C163.843 186.146 163.369 185.882 162.868 185.849ZM99.4417 186.074C98.7122 186.067 98.059 186.548 97.9011 187.255L94.149 204.085C93.9686 204.893 94.5063 205.682 95.3548 205.853C96.2032 206.025 97.0312 205.512 97.2116 204.704L100.964 187.876C101.144 187.067 100.606 186.279 99.758 186.107C99.6519 186.086 99.5457 186.074 99.4417 186.074ZM133.508 186.085C133.404 186.085 133.298 186.095 133.192 186.116C132.344 186.287 131.806 187.076 131.985 187.884L135.725 204.715C135.904 205.524 136.732 206.037 137.581 205.866C138.429 205.694 138.967 204.906 138.788 204.097L135.048 187.267C134.89 186.56 134.237 186.079 133.508 186.085ZM116.502 187.782C115.635 187.782 114.937 188.447 114.937 189.273V206.477C114.937 207.304 115.635 207.969 116.502 207.969C117.37 207.969 118.068 207.304 118.068 206.477V189.273C118.068 188.447 117.37 187.782 116.502 187.782ZM87.767 193.341C87.159 193.39 86.6135 193.778 86.4126 194.367L84.0646 201.25C83.7965 202.035 84.2445 202.874 85.0694 203.13C85.8938 203.385 86.774 202.957 87.0421 202.172L89.3895 195.289C89.6577 194.504 89.2096 193.665 88.3852 193.41C88.1792 193.346 87.9695 193.325 87.767 193.341ZM145.226 193.344C145.023 193.327 144.814 193.348 144.608 193.413C143.783 193.668 143.334 194.507 143.602 195.293L145.949 202.175C146.217 202.961 147.098 203.388 147.922 203.133C148.747 202.877 149.195 202.039 148.928 201.253L146.58 194.371C146.378 193.782 145.834 193.393 145.226 193.344ZM106.676 197.178C105.95 197.245 105.352 197.787 105.273 198.506L104.479 205.704C104.388 206.526 105.01 207.257 105.872 207.343C106.735 207.429 107.502 206.837 107.593 206.016L108.387 198.819C108.478 197.997 107.856 197.266 106.994 197.179C106.886 197.169 106.78 197.169 106.676 197.178ZM126.266 197.185C126.162 197.174 126.055 197.174 125.947 197.186C125.085 197.272 124.463 198.003 124.553 198.824L125.342 206.023C125.432 206.844 126.199 207.437 127.061 207.351C127.924 207.265 128.546 206.534 128.456 205.713L127.667 198.515C127.589 197.796 126.992 197.252 126.266 197.185Z" fill="white"/>
<path fill-rule="evenodd" clip-rule="evenodd" d="M128.778 123.248L41.6932 179.065L104.229 98.7533L191.315 42.9363L128.778 123.248Z" fill="white"/>
</svg>
